# xmcd
#
# Track frame offsets: 
#        150
#        17419
#        33577
#        52458
#        70894
#        99188
#        119233
#        136954
#        151933
#        170452
#
# Disc length: 2615 seconds
#
# Revision: 0
# Processed by: cddbd v1.5.2PL0 Copyright (c) Steve Scherf et al.
# Submitted via: ExactAudioCopy v1.1
#
DISCID=880a350a
DTITLE=Charlie Shafter - Charlie Shafter
DYEAR=2012
DGENRE=Country
TTITLE0=Morgan's Song
TTITLE1=Dear Diana
TTITLE2=Sea Wall
TTITLE3=Big Debut
TTITLE4=Actor
TTITLE5=Lost In A Crowd
TTITLE6=Jamila
TTITLE7=Drunk On Desire
TTITLE8=Illinois
TTITLE9=Dog On A Chain
EXTD=
EXTT0=
EXTT1=
EXTT2=
EXTT3=
EXTT4=
EXTT5=
EXTT6=
EXTT7=
EXTT8=
EXTT9=
PLAYORDER=
